<svg width="105" height="18" viewBox="0 0 105 18" fill="none" xmlns="http://www.w3.org/2000/svg">
<path d="M0 8.99937C0 13.9701 4.17322 17.9987 9.3205 17.9987H12.8938V14.1109H10.372C6.4469 14.1109 4.42133 11.8221 4.42133 8.99937C4.42133 6.17668 6.4469 3.88785 10.372 3.88785H12.8938V0H9.3205C4.17322 0 0 4.02987 0 8.99937ZM47.8102 8.99937C47.8102 13.9701 51.9834 17.9987 57.1307 17.9987H60.704V14.1109H58.1822C54.2571 14.1109 52.2315 11.8221 52.2315 8.99937C52.2315 6.17668 54.2571 3.88785 58.1822 3.88785H60.704V0H57.1307C51.9834 0 47.8102 4.02987 47.8102 8.99937ZM28.7793 5.92307C28.7793 1.71187 25.655 0 21.8454 0H14.6082V18H18.7762V3.40852H21.7365C23.573 3.40852 24.866 4.40521 24.8332 6.08285C24.8004 7.72878 23.3052 8.74576 21.7837 8.76478H19.4772L24.9973 18H29.3819L25.2231 11.1246C27.3878 10.3029 28.7793 8.65065 28.7793 5.92307ZM84.6472 0H80.0919V18H91.6507V14.1147H84.6472V0ZM97.6368 14.1857V10.7658H103.838V6.95146H97.6368V3.85995H104.766V0H93.0816V18H105V14.1857H97.6368ZM36.346 0L30.0461 18H34.734L36.0441 14.0957H42.571L43.9232 18H48.6609L42.4188 0H36.346ZM37.0759 10.592L39.3443 3.78133L41.5615 10.592H37.0759ZM62.4185 18H67.0643V0H62.4185V18ZM73.3838 0L67.7508 8.81677L73.4193 18H78.9984L72.7051 8.83959L79.0168 0H73.3838Z" fill="#FF601C"/>
</svg>
